<svg width="16" height="16" fill="none"><path fill-rule="evenodd" clip-rule="evenodd" d="M4.409 9.223l-.694-.536 3.76-2.855.536.694L4.41 9.223z" fill="currentColor"></path><path d="M4.593 8.687h-.878v5.658h.878V8.687z" fill="currentColor"></path><path d="M8.768 6.939a1.511 1.511 0 100-3.023 1.511 1.511 0 000 3.023z" stroke="currentColor" stroke-miterlimit="10"></path><path fill-rule="evenodd" clip-rule="evenodd" d="M15.158 6.613l.843.465-4.45 3.26-.677-.659 4.284-3.066z" fill="currentColor"></path><path d="M9.847 12.799a1.511 1.511 0 100-3.023 1.511 1.511 0 000 3.023z" stroke="currentColor" stroke-miterlimit="10"></path><path d="M15.5 8a7.5 7.5 0 11-15 0 7.5 7.5 0 0115 0z" stroke="currentColor"></path></svg>